<?xml version="1.0" encoding="utf-8"?>
<!-- Generator: Adobe Illustrator 23.1.0, SVG Export Plug-In . SVG Version: 6.00 Build 0)  -->
<svg version="1.1" id="Layer_1" xmlns="http://www.w3.org/2000/svg" xmlns:xlink="http://www.w3.org/1999/xlink" x="0px" y="0px"
	 viewBox="0 0 432 288" style="enable-background:new 0 0 432 288;" xml:space="preserve">
<style type="text/css">
	.st0{display:none;}
	.st1{fill:#7F7F7F;}
	.st2{fill:#AFABAB;stroke:#000000;stroke-miterlimit:10;}
	.st3{fill:none;stroke:#000000;stroke-width:0.25;stroke-miterlimit:10;}
	.st4{fill:#FFFFFF;stroke:#000000;stroke-width:0.25;stroke-miterlimit:9.9996;}
	.st5{fill:#FFFFFF;stroke:#000000;stroke-width:0.25;stroke-miterlimit:10.0001;}
	.st6{fill:#FFFFFF;stroke:#000000;stroke-width:0.25;stroke-miterlimit:10;}
</style>
<g class="st0">
	
		<image style="display:inline;overflow:visible;enable-background:new    ;" width="358" height="344" xlink:href="33B1CF8E.png"  transform="matrix(0.75 0 0 0.75 82 15)">
	</image>
</g>
<g id="Outline">
	<g>
		<polygon class="st1" points="252.1,274.9 224.2,274.9 223.5,258.4 205.2,258.4 204.8,274.9 176.9,274.9 176.9,237.9 252.1,237.9 
					"/>
		<rect x="157.5" y="171" class="st1" width="113" height="70.4"/>
		<polygon class="st1" points="293.1,172.7 133.3,173.5 172.2,22.5 255.3,22.4 		"/>
		<polygon class="st2" points="174,25.9 252.6,25.9 256.5,37.8 259.8,37.1 255.3,22.4 253.9,22.4 253.6,22.4 172.6,22.4 172.2,22.5 
			171.2,22.9 169.6,29.2 172.9,30.1 		"/>
		<polygon class="st2" points="295.3,172.1 295.3,172 295,170.8 264.7,52 261.3,52.8 291.4,170.9 267,171.1 267,172.8 267,172.8 
			267,213.6 270.5,213.6 270.5,174.5 295.3,174.3 		"/>
		<polygon class="st2" points="161.2,213.6 161.2,172.3 161.2,172.3 161.2,171 135.6,170.8 168.3,44.1 164.9,43.2 131.8,171.6 
			131.8,171.6 131.3,173.4 133.3,173.5 157.7,173.7 157.7,213.6 		"/>
		<polygon class="st2" points="267,237.9 247.5,237.9 247.5,241.4 247.6,241.4 248.6,275 252.1,274.9 251.1,241.4 270.5,241.4 
			270.5,239.6 270.5,237.9 270.5,225.9 267,225.9 		"/>
		<polygon class="st2" points="176.9,237.9 161.4,237.9 161.4,224.6 157.9,224.6 157.9,237.9 157.9,239.6 157.9,241.4 176.9,241.4 
			176.9,275 180.4,275 180.4,237.9 179.1,237.9 		"/>
		<polygon class="st2" points="201.3,260.2 201.3,261.9 201.3,272.2 204.8,272.2 204.8,261.9 224,261.9 224,272.2 227.5,272.2 
			227.5,261.9 227.5,260.2 227.5,258.4 201.3,258.4 		"/>
		<g>
			<path class="st3" d="M269.7,214.3c0,0-14.3-1.4-14.7,10.3"/>
			
				<rect x="255" y="224.5" transform="matrix(0.9999 -1.110043e-02 1.110043e-02 0.9999 -2.4835 2.9081)" class="st4" width="11.5" height="1.3"/>
		</g>
		<g>
			<path class="st3" d="M190.8,261.6c0,0-1.1,10.4,8.8,10.7"/>
			
				<rect x="199.4" y="260.8" transform="matrix(0.9998 -2.059975e-02 2.059975e-02 0.9998 -5.4475 4.178)" class="st5" width="1.3" height="11.5"/>
		</g>
		<g>
			<path class="st3" d="M190.8,261.5c0,0,1.1,10.5-8.6,10.7"/>
			
				<rect x="176" y="265.8" transform="matrix(2.059975e-02 -0.9998 0.9998 2.059975e-02 -88.4763 442.6741)" class="st5" width="11.5" height="1.3"/>
		</g>
		<g>
			<path class="st3" d="M237.8,262.7c0,0-1.1,10.4,8.8,10.7"/>
			
				<rect x="246.4" y="261.9" transform="matrix(0.9998 -2.059975e-02 2.059975e-02 0.9998 -5.4612 5.1469)" class="st5" width="1.3" height="11.5"/>
		</g>
		<g>
			<path class="st3" d="M237.8,262.7c0,0,1.1,10.5-8.6,10.7"/>
			
				<rect x="223" y="267" transform="matrix(2.059975e-02 -0.9998 0.9998 2.059975e-02 -43.5865 490.8118)" class="st5" width="11.5" height="1.3"/>
		</g>
		<g>
			<path class="st3" d="M157.9,214.3c0,0,14.3-1.4,14.7,10.3"/>
			
				<rect x="166.2" y="219.5" transform="matrix(1.110043e-02 -0.9999 0.9999 1.110043e-02 -60.1853 389.5635)" class="st4" width="1.3" height="11.5"/>
		</g>
		<g>
			<path class="st3" d="M256.9,37.8c0,0,18.5-1.6,19.2,12.6"/>
			<polygon class="st6" points="276.1,50.3 259.3,50.9 259.3,52.2 276.1,51.6 			"/>
		</g>
		<g>
			<path class="st3" d="M168.3,28.8c0,0-18.5-1.7-19.2,12.9"/>
			<polygon class="st6" points="149.1,41.4 165.9,41.9 165.9,43.2 149.1,42.7 			"/>
		</g>
	</g>
</g>
</svg>
